<svg xmlns="http://www.w3.org/2000/svg" viewBox="0 0 512 512">
  <rect width="512" height="512" rx="64" fill="#2563eb"/>
  <g fill="white">
    <!-- 3x3 grid representing sudoku -->
    <rect x="80" y="80" width="100" height="100" rx="8"/>
    <rect x="206" y="80" width="100" height="100" rx="8"/>
    <rect x="332" y="80" width="100" height="100" rx="8"/>
    <rect x="80" y="206" width="100" height="100" rx="8"/>
    <rect x="206" y="206" width="100" height="100" rx="8"/>
    <rect x="332" y="206" width="100" height="100" rx="8"/>
    <rect x="80" y="332" width="100" height="100" rx="8"/>
    <rect x="206" y="332" width="100" height="100" rx="8"/>
    <rect x="332" y="332" width="100" height="100" rx="8"/>
  </g>
  <g fill="#2563eb" font-family="system-ui, sans-serif" font-weight="bold" text-anchor="middle">
    <text x="130" y="155" font-size="48">9</text>
    <text x="256" y="155" font-size="48">5</text>
    <text x="382" y="155" font-size="48">1</text>
    <text x="130" y="281" font-size="48">3</text>
    <text x="256" y="281" font-size="48">7</text>
    <text x="382" y="281" font-size="48">4</text>
    <text x="130" y="407" font-size="48">2</text>
    <text x="256" y="407" font-size="48">8</text>
    <text x="382" y="407" font-size="48">6</text>
  </g>
</svg>
