<?xml version="1.0" encoding="UTF-8" standalone="no"?>
<!-- Created with Inkscape (http://www.inkscape.org/) -->

<svg
   version="1.1"
   id="svg1"
   width="533.33331"
   height="533.33331"
   viewBox="0 0 533.33331 533.33331"
   xmlns="http://www.w3.org/2000/svg"
   xmlns:svg="http://www.w3.org/2000/svg">
  <defs
     id="defs1">
    <clipPath
       clipPathUnits="userSpaceOnUse"
       id="clipPath2">
      <path
         d="M 0,0 H 400 V 400 H 0 Z"
         transform="translate(-312.14941,-400.00001)"
         id="path2" />
    </clipPath>
    <clipPath
       clipPathUnits="userSpaceOnUse"
       id="clipPath4">
      <path
         d="M 0,0 H 400 V 400 H 0 Z"
         transform="translate(-146.45751,-262.8584)"
         id="path4" />
    </clipPath>
    <clipPath
       clipPathUnits="userSpaceOnUse"
       id="clipPath6">
      <path
         d="M 0,0 H 400 V 400 H 0 Z"
         transform="translate(-188.3418,-220.97411)"
         id="path6" />
    </clipPath>
    <clipPath
       clipPathUnits="userSpaceOnUse"
       id="clipPath8">
      <path
         d="M 0,0 H 400 V 400 H 0 Z"
         transform="translate(-146.45751,-179.08981)"
         id="path8" />
    </clipPath>
    <clipPath
       clipPathUnits="userSpaceOnUse"
       id="clipPath10">
      <path
         d="M 0,0 H 400 V 400 H 0 Z"
         transform="translate(-188.3418,-137.2051)"
         id="path10" />
    </clipPath>
    <clipPath
       clipPathUnits="userSpaceOnUse"
       id="clipPath12">
      <path
         d="M 0,0 H 400 V 400 H 0 Z"
         transform="translate(-262.85841,-130.6631)"
         id="path12" />
    </clipPath>
    <clipPath
       clipPathUnits="userSpaceOnUse"
       id="clipPath14">
      <path
         d="M 0,0 H 400 V 400 H 0 Z"
         transform="translate(-262.53321,-214.1069)"
         id="path14" />
    </clipPath>
    <clipPath
       clipPathUnits="userSpaceOnUse"
       id="clipPath16">
      <path
         d="M 0,0 H 400 V 400 H 0 Z"
         transform="translate(-220.64841,-255.9917)"
         id="path16" />
    </clipPath>
    <clipPath
       clipPathUnits="userSpaceOnUse"
       id="clipPath18">
      <path
         d="M 0,0 H 400 V 400 H 0 Z"
         transform="translate(-137.20461,-88.780302)"
         id="path18" />
    </clipPath>
    <clipPath
       clipPathUnits="userSpaceOnUse"
       id="clipPath20">
      <path
         d="M 0,0 H 400 V 400 H 0 Z"
         transform="translate(-95.3203,-130.6631)"
         id="path20" />
    </clipPath>
    <clipPath
       clipPathUnits="userSpaceOnUse"
       id="clipPath22">
      <path
         d="M 0,0 H 400 V 400 H 0 Z"
         transform="translate(-95.3203,-214.4321)"
         id="path22" />
    </clipPath>
  </defs>
  <g
     id="layer-MC0">
    <path
       id="path1"
       d="m 0,0 h -224.299 c -48.441,0 -87.85,-39.41 -87.85,-87.851 v -224.298 c 0,-48.442 39.409,-87.851 87.85,-87.851 H 0 c 48.441,0 87.851,39.409 87.851,87.851 V -87.851 C 87.851,-39.41 48.441,0 0,0 m 0,-13.084 c 41.293,0 74.767,-33.474 74.767,-74.767 v -224.298 c 0,-41.293 -33.474,-74.767 -74.767,-74.767 h -224.299 c -41.292,0 -74.766,33.474 -74.766,74.767 v 224.298 c 0,41.293 33.474,74.767 74.766,74.767 H 0"
       style="fill:#000000;fill-opacity:1;fill-rule:nonzero;stroke:none"
       transform="matrix(1.3333333,0,0,-1.3333333,416.1992,0)"
       clip-path="url(#clipPath2)" />
    <path
       id="path3"
       d="M 0,0 32.632,-32.632 65.263,0 32.632,32.632 Z M 32.632,-51.137 -18.505,0 32.632,51.137 83.769,0 Z"
       style="fill:#000000;fill-opacity:1;fill-rule:nonzero;stroke:none"
       transform="matrix(1.3333333,0,0,-1.3333333,195.27667,182.85547)"
       clip-path="url(#clipPath4)" />
    <path
       id="path5"
       d="M 0,0 32.632,-32.632 65.264,0 32.632,32.632 Z M 32.632,-51.137 -18.505,0 32.632,51.137 83.77,0 Z"
       style="fill:#000000;fill-opacity:1;fill-rule:nonzero;stroke:none"
       transform="matrix(1.3333333,0,0,-1.3333333,251.1224,238.7012)"
       clip-path="url(#clipPath6)" />
    <path
       id="path7"
       d="M 0,0 32.632,-32.632 65.263,0 32.632,32.631 Z M 32.632,-51.138 -18.505,0 32.632,51.137 83.769,0 Z"
       style="fill:#000000;fill-opacity:1;fill-rule:nonzero;stroke:none"
       transform="matrix(1.3333333,0,0,-1.3333333,195.27667,294.54693)"
       clip-path="url(#clipPath8)" />
    <path
       id="path9"
       d="M 0,0 32.632,-32.632 65.264,0 32.632,32.632 Z M 32.632,-51.134 -18.505,0 32.632,51.137 83.77,0 Z"
       style="fill:#000000;fill-opacity:1;fill-rule:nonzero;stroke:none"
       transform="matrix(1.3333333,0,0,-1.3333333,251.1224,350.3932)"
       clip-path="url(#clipPath10)" />
    <path
       id="path11"
       d="m 0,0 c -1.674,0 -3.348,0.639 -4.626,1.917 -2.556,2.553 -2.556,6.696 0,9.25 l 41.885,41.885 c 2.555,2.555 6.695,2.555 9.251,0 2.555,-2.554 2.555,-6.698 0,-9.251 L 4.625,1.917 C 3.348,0.639 1.674,0 0,0"
       style="fill:#000000;fill-opacity:1;fill-rule:nonzero;stroke:none"
       transform="matrix(1.3333333,0,0,-1.3333333,350.47787,359.11587)"
       clip-path="url(#clipPath12)" />
    <path
       id="path13"
       d="m 0,0 c -1.674,0 -3.348,0.639 -4.625,1.917 -2.556,2.553 -2.556,6.697 0,9.25 l 41.884,41.885 c 2.555,2.555 6.695,2.555 9.251,0 2.555,-2.553 2.555,-6.697 0,-9.251 L 4.626,1.917 C 3.348,0.639 1.674,0 0,0"
       style="fill:#000000;fill-opacity:1;fill-rule:nonzero;stroke:none"
       transform="matrix(1.3333333,0,0,-1.3333333,350.04427,247.85747)"
       clip-path="url(#clipPath14)" />
    <path
       id="path15"
       d="m 0,0 c -1.674,0 -3.348,0.639 -4.625,1.917 -2.556,2.553 -2.556,6.697 0,9.25 L 37.26,53.052 c 2.554,2.555 6.695,2.555 9.251,0 2.553,-2.554 2.553,-6.698 0,-9.251 L 4.626,1.917 C 3.348,0.639 1.674,0 0,0"
       style="fill:#000000;fill-opacity:1;fill-rule:nonzero;stroke:none"
       transform="matrix(1.3333333,0,0,-1.3333333,294.19787,192.01107)"
       clip-path="url(#clipPath16)" />
    <path
       id="path17"
       d="m 0,0 c -1.674,0 -3.348,0.639 -4.625,1.917 -2.556,2.555 -2.556,6.695 0,9.251 L 37.259,53.05 c 2.555,2.555 6.696,2.555 9.251,0 2.555,-2.554 2.555,-6.697 0,-9.25 L 4.625,1.917 C 3.348,0.639 1.674,0 0,0"
       style="fill:#000000;fill-opacity:1;fill-rule:nonzero;stroke:none"
       transform="matrix(1.3333333,0,0,-1.3333333,182.93947,414.9596)"
       clip-path="url(#clipPath18)" />
    <path
       id="path19"
       d="m 0,0 c -1.674,0 -3.348,0.639 -4.625,1.917 -2.556,2.553 -2.556,6.696 0,9.25 l 41.884,41.885 c 2.555,2.555 6.695,2.555 9.251,0 2.555,-2.554 2.555,-6.698 0,-9.251 L 4.625,1.917 C 3.348,0.639 1.674,0 0,0"
       style="fill:#000000;fill-opacity:1;fill-rule:nonzero;stroke:none"
       transform="matrix(1.3333333,0,0,-1.3333333,127.09373,359.11587)"
       clip-path="url(#clipPath20)" />
    <path
       id="path21"
       d="m 0,0 c -1.674,0 -3.348,0.639 -4.625,1.917 -2.556,2.553 -2.556,6.697 0,9.25 l 41.884,41.885 c 2.555,2.555 6.695,2.555 9.251,0 2.555,-2.554 2.555,-6.698 0,-9.251 L 4.625,1.917 C 3.348,0.639 1.674,0 0,0"
       style="fill:#000000;fill-opacity:1;fill-rule:nonzero;stroke:none"
       transform="matrix(1.3333333,0,0,-1.3333333,127.09373,247.42387)"
       clip-path="url(#clipPath22)" />
  </g>
</svg>
