<?xml version="1.0" encoding="UTF-8" standalone="no"?>
<!-- Created with Inkscape (http://www.inkscape.org/) -->

<svg
   version="1.1"
   id="svg1"
   width="533.33331"
   height="533.33331"
   viewBox="0 0 533.33331 533.33331"
   xmlns="http://www.w3.org/2000/svg"
   xmlns:svg="http://www.w3.org/2000/svg">
  <defs
     id="defs1">
    <clipPath
       clipPathUnits="userSpaceOnUse"
       id="clipPath2">
      <path
         d="M 0,0 H 400 V 400 H 0 Z"
         transform="translate(-312.14941,-400.00001)"
         id="path2" />
    </clipPath>
    <clipPath
       clipPathUnits="userSpaceOnUse"
       id="clipPath4">
      <path
         d="M 0,0 H 400 V 400 H 0 Z"
         id="path4" />
    </clipPath>
    <clipPath
       clipPathUnits="userSpaceOnUse"
       id="clipPath6">
      <path
         d="M 0,0 H 400 V 400 H 0 Z"
         id="path6" />
    </clipPath>
    <clipPath
       clipPathUnits="userSpaceOnUse"
       id="clipPath8">
      <path
         d="M 0,0 H 400 V 400 H 0 Z"
         id="path8" />
    </clipPath>
    <clipPath
       clipPathUnits="userSpaceOnUse"
       id="clipPath10">
      <path
         d="M 0,0 H 400 V 400 H 0 Z"
         transform="translate(-299.15331,-224.72311)"
         id="path10" />
    </clipPath>
    <clipPath
       clipPathUnits="userSpaceOnUse"
       id="clipPath12">
      <path
         d="M 0,0 H 400 V 400 H 0 Z"
         transform="translate(-273.6895,-173.59771)"
         id="path12" />
    </clipPath>
  </defs>
  <g
     id="layer-MC0">
    <path
       id="path1"
       d="m 0,0 h -224.299 c -48.441,0 -87.85,-39.41 -87.85,-87.851 v -224.298 c 0,-48.442 39.409,-87.851 87.85,-87.851 H 0 c 48.441,0 87.851,39.409 87.851,87.851 V -87.851 C 87.851,-39.41 48.441,0 0,0 m 0,-13.084 c 41.293,0 74.767,-33.474 74.767,-74.767 v -224.298 c 0,-41.292 -33.474,-74.767 -74.767,-74.767 h -224.299 c -41.292,0 -74.766,33.475 -74.766,74.767 v 224.298 c 0,41.293 33.474,74.767 74.766,74.767 H 0"
       style="fill:#000000;fill-opacity:1;fill-rule:nonzero;stroke:none"
       transform="matrix(1.3333333,0,0,-1.3333333,416.1992,0)"
       clip-path="url(#clipPath2)" />
    <path
       id="path3"
       d="M 90.225,137.923 H 310.592 V 263.007 H 90.225 Z M 323.677,124.841 H 77.141 v 151.25 h 246.536 z"
       style="fill:#000000;fill-opacity:1;fill-rule:nonzero;stroke:none"
       transform="matrix(1.3333333,0,0,-1.3333333,0,533.33333)"
       clip-path="url(#clipPath4)" />
    <path
       id="path5"
       d="m 342.875,99.624 h -90.38 v 67.431 h 90.38 z"
       style="fill:#f2f2f2;fill-opacity:1;fill-rule:nonzero;stroke:none"
       transform="matrix(1.3333333,0,0,-1.3333333,0,533.33333)"
       clip-path="url(#clipPath6)" />
    <path
       id="path7"
       d="m 259.037,106.167 h 77.296 v 54.347 H 259.037 Z M 349.418,93.083 H 245.953 v 80.515 h 103.465 z"
       style="fill:#000000;fill-opacity:1;fill-rule:nonzero;stroke:none"
       transform="matrix(1.3333333,0,0,-1.3333333,0,533.33333)"
       clip-path="url(#clipPath8)" />
    <path
       id="path9"
       d="m 0,0 h -2.937 c -16.054,0 -29.07,-13.016 -29.07,-29.071 V -57.668 H 29.07 v 28.597 C 29.07,-13.016 16.055,0 0,0"
       style="fill:#f2f2f2;fill-opacity:1;fill-rule:nonzero;stroke:none"
       transform="matrix(1.3333333,0,0,-1.3333333,398.87107,233.70253)"
       clip-path="url(#clipPath10)" />
    <path
       id="path11"
       d="M 0,0 H 47.992 V 20.588 C 47.992,33.82 37.229,44.584 23.996,44.584 10.764,44.584 0,33.82 0,20.588 Z m 61.076,-13.084 h -74.16 v 33.672 c 0,20.446 16.634,37.08 37.08,37.08 20.445,0 37.08,-16.634 37.08,-37.08 z"
       style="fill:#000000;fill-opacity:1;fill-rule:nonzero;stroke:none"
       transform="matrix(1.3333333,0,0,-1.3333333,364.91933,301.86973)"
       clip-path="url(#clipPath12)" />
  </g>
</svg>
