<?xml version="1.0" encoding="UTF-8" standalone="no"?>
<!-- Created with Inkscape (http://www.inkscape.org/) -->

<svg
   version="1.1"
   id="svg1"
   width="533.33331"
   height="533.33331"
   viewBox="0 0 533.33331 533.33331"
   xmlns="http://www.w3.org/2000/svg"
   xmlns:svg="http://www.w3.org/2000/svg">
  <defs
     id="defs1">
    <clipPath
       clipPathUnits="userSpaceOnUse"
       id="clipPath2">
      <path
         d="M 0,0 H 400 V 400 H 0 Z"
         transform="translate(-312.14941,-400.00001)"
         id="path2" />
    </clipPath>
    <clipPath
       clipPathUnits="userSpaceOnUse"
       id="clipPath4">
      <path
         d="M 0,0 H 400 V 400 H 0 Z"
         id="path4" />
    </clipPath>
    <clipPath
       clipPathUnits="userSpaceOnUse"
       id="clipPath6">
      <path
         d="M 0,0 H 400 V 400 H 0 Z"
         id="path6" />
    </clipPath>
    <clipPath
       clipPathUnits="userSpaceOnUse"
       id="clipPath8">
      <path
         d="M 0,0 H 400 V 400 H 0 Z"
         id="path8" />
    </clipPath>
    <clipPath
       clipPathUnits="userSpaceOnUse"
       id="clipPath10">
      <path
         d="M 0,0 H 400 V 400 H 0 Z"
         id="path10" />
    </clipPath>
    <clipPath
       clipPathUnits="userSpaceOnUse"
       id="clipPath12">
      <path
         d="M 0,0 H 400 V 400 H 0 Z"
         id="path12" />
    </clipPath>
    <clipPath
       clipPathUnits="userSpaceOnUse"
       id="clipPath14">
      <path
         d="M 0,0 H 400 V 400 H 0 Z"
         transform="translate(-293.94921,-146.65921)"
         id="path14" />
    </clipPath>
    <clipPath
       clipPathUnits="userSpaceOnUse"
       id="clipPath16">
      <path
         d="M 0,0 H 400 V 400 H 0 Z"
         transform="translate(-349.70511,-140.25391)"
         id="path16" />
    </clipPath>
  </defs>
  <g
     id="layer-MC0">
    <path
       id="path1"
       d="m 0,0 h -224.299 c -48.441,0 -87.85,-39.41 -87.85,-87.851 v -224.298 c 0,-48.442 39.409,-87.851 87.85,-87.851 H 0 c 48.441,0 87.851,39.409 87.851,87.851 V -87.851 C 87.851,-39.41 48.441,0 0,0 m 0,-13.084 c 41.293,0 74.767,-33.474 74.767,-74.767 v -224.298 c 0,-41.293 -33.474,-74.767 -74.767,-74.767 h -224.299 c -41.292,0 -74.766,33.474 -74.766,74.767 v 224.298 c 0,41.293 33.474,74.767 74.766,74.767 H 0"
       style="fill:#000000;fill-opacity:1;fill-rule:nonzero;stroke:none"
       transform="matrix(1.3333333,0,0,-1.3333333,416.1992,0)"
       clip-path="url(#clipPath2)" />
    <path
       id="path3"
       d="M 334.341,117.832 H 145.703 v 111.646 h 188.638 z"
       style="fill:#f2f2f2;fill-opacity:1;fill-rule:nonzero;stroke:none"
       transform="matrix(1.3333333,0,0,-1.3333333,0,533.33333)"
       clip-path="url(#clipPath4)" />
    <path
       id="path5"
       d="m 152.107,124.238 h 175.829 v 98.833 H 152.107 Z M 340.742,111.43 H 139.3 v 124.453 h 201.442 z"
       style="fill:#000000;fill-opacity:1;fill-rule:nonzero;stroke:none"
       transform="matrix(1.3333333,0,0,-1.3333333,0,533.33333)"
       clip-path="url(#clipPath6)" />
    <path
       id="path7"
       d="m 57.787,180.06 h 175.832 v 98.835 H 57.787 Z m 188.64,-12.811 H 44.981 v 124.456 h 201.446 z"
       style="fill:#000000;fill-opacity:1;fill-rule:nonzero;stroke:none"
       transform="matrix(1.3333333,0,0,-1.3333333,0,533.33333)"
       clip-path="url(#clipPath8)" />
    <path
       id="path9"
       d="m 355.141,92.173 h -73.029 v 54.486 h 73.029 z"
       style="fill:#f2f2f2;fill-opacity:1;fill-rule:nonzero;stroke:none"
       transform="matrix(1.3333333,0,0,-1.3333333,0,533.33333)"
       clip-path="url(#clipPath10)" />
    <path
       id="path11"
       d="m 288.516,98.576 h 60.223 v 41.678 H 288.516 Z M 361.544,85.77 h -85.835 v 67.296 h 85.835 z"
       style="fill:#000000;fill-opacity:1;fill-rule:nonzero;stroke:none"
       transform="matrix(1.3333333,0,0,-1.3333333,0,533.33333)"
       clip-path="url(#clipPath12)" />
    <path
       id="path13"
       d="m 0,0 h 49.353 v 21.922 c 0,13.629 -11.048,24.677 -24.677,24.677 C 11.048,46.599 0,35.551 0,21.922"
       style="fill:#f2f2f2;fill-opacity:1;fill-rule:nonzero;stroke:none"
       transform="matrix(1.3333333,0,0,-1.3333333,391.93227,337.78773)"
       clip-path="url(#clipPath14)" />
    <path
       id="path15"
       d="m 0,0 h -55.758 v 12.811 h 42.951 v 15.517 c 0,10.074 -8.196,18.27 -18.272,18.27 -10.076,0 -18.275,-8.196 -18.275,-18.27 h -12.807 c 0,17.138 13.942,31.08 31.082,31.08 C -13.942,59.408 0,45.466 0,28.328 Z"
       style="fill:#000000;fill-opacity:1;fill-rule:nonzero;stroke:none"
       transform="matrix(1.3333333,0,0,-1.3333333,466.27347,346.32813)"
       clip-path="url(#clipPath16)" />
  </g>
</svg>
