<?xml version="1.0" encoding="UTF-8" standalone="no"?>
<!-- Created with Inkscape (http://www.inkscape.org/) -->

<svg
   version="1.1"
   id="svg1"
   width="533.33331"
   height="533.33331"
   viewBox="0 0 533.33331 533.33331"
   xmlns="http://www.w3.org/2000/svg"
   xmlns:svg="http://www.w3.org/2000/svg">
  <defs
     id="defs1">
    <clipPath
       clipPathUnits="userSpaceOnUse"
       id="clipPath2">
      <path
         d="M 0,0 H 400 V 400 H 0 Z"
         transform="translate(-312.14941,-400.00001)"
         id="path2" />
    </clipPath>
    <clipPath
       clipPathUnits="userSpaceOnUse"
       id="clipPath4">
      <path
         d="M 0,0 H 400 V 400 H 0 Z"
         transform="translate(-198.1294,-228.3506)"
         id="path4" />
    </clipPath>
    <clipPath
       clipPathUnits="userSpaceOnUse"
       id="clipPath6">
      <path
         d="M 0,0 H 400 V 400 H 0 Z"
         transform="translate(-314.83501,-228.3506)"
         id="path6" />
    </clipPath>
    <clipPath
       clipPathUnits="userSpaceOnUse"
       id="clipPath8">
      <path
         d="M 0,0 H 400 V 400 H 0 Z"
         transform="translate(-85.162105,-228.3506)"
         id="path8" />
    </clipPath>
  </defs>
  <g
     id="layer-MC0">
    <path
       id="path1"
       d="m 0,0 h -224.299 c -48.441,0 -87.85,-39.41 -87.85,-87.851 v -224.298 c 0,-48.442 39.409,-87.851 87.85,-87.851 H 0 c 48.44,0 87.851,39.409 87.851,87.851 V -87.851 C 87.851,-39.41 48.44,0 0,0 m 0,-13.084 c 41.292,0 74.767,-33.474 74.767,-74.767 v -224.298 c 0,-41.292 -33.475,-74.767 -74.767,-74.767 h -224.299 c -41.292,0 -74.766,33.475 -74.766,74.767 v 224.298 c 0,41.293 33.474,74.767 74.766,74.767 H 0"
       style="fill:#000000;fill-opacity:1;fill-rule:nonzero;stroke:none"
       transform="matrix(1.3333333,0,0,-1.3333333,416.1992,0)"
       clip-path="url(#clipPath2)" />
    <path
       id="path3"
       d="m 0,0 c -18.038,0 -32.71,-14.672 -32.71,-32.71 0,-18.039 14.672,-32.711 32.71,-32.711 18.039,0 32.71,14.672 32.71,32.711 C 32.71,-14.672 18.039,0 0,0 m 0,-78.505 c -25.252,0 -45.794,20.543 -45.794,45.795 0,25.252 20.542,45.794 45.794,45.794 25.252,0 45.794,-20.542 45.794,-45.794 0,-25.252 -20.542,-45.795 -45.794,-45.795"
       style="fill:#000000;fill-opacity:1;fill-rule:nonzero;stroke:none"
       transform="matrix(1.3333333,0,0,-1.3333333,264.17253,228.86587)"
       clip-path="url(#clipPath4)" />
    <path
       id="path5"
       d="m 0,0 c -18.038,0 -32.71,-14.672 -32.71,-32.71 0,-18.039 14.672,-32.711 32.71,-32.711 18.038,0 32.71,14.672 32.71,32.711 C 32.71,-14.672 18.038,0 0,0 m 0,-78.505 c -25.252,0 -45.794,20.543 -45.794,45.795 0,25.252 20.542,45.794 45.794,45.794 25.252,0 45.795,-20.542 45.795,-45.794 0,-25.252 -20.543,-45.795 -45.795,-45.795"
       style="fill:#000000;fill-opacity:1;fill-rule:nonzero;stroke:none"
       transform="matrix(1.3333333,0,0,-1.3333333,419.78,228.86587)"
       clip-path="url(#clipPath6)" />
    <path
       id="path7"
       d="m 0,0 c -18.038,0 -32.71,-14.672 -32.71,-32.71 0,-18.039 14.672,-32.711 32.71,-32.711 18.038,0 32.71,14.672 32.71,32.711 C 32.71,-14.672 18.038,0 0,0 m 0,-78.505 c -25.252,0 -45.794,20.543 -45.794,45.795 0,25.252 20.542,45.794 45.794,45.794 25.252,0 45.794,-20.542 45.794,-45.794 0,-25.252 -20.542,-45.795 -45.794,-45.795"
       style="fill:#000000;fill-opacity:1;fill-rule:nonzero;stroke:none"
       transform="matrix(1.3333333,0,0,-1.3333333,113.54947,228.86587)"
       clip-path="url(#clipPath8)" />
  </g>
</svg>
