<?xml version="1.0" encoding="UTF-8" standalone="no"?>
<!-- Created with Inkscape (http://www.inkscape.org/) -->

<svg
   version="1.1"
   id="svg1"
   width="533.33331"
   height="533.33331"
   viewBox="0 0 533.33331 533.33331"
   xmlns="http://www.w3.org/2000/svg"
   xmlns:svg="http://www.w3.org/2000/svg">
  <defs
     id="defs1">
    <clipPath
       clipPathUnits="userSpaceOnUse"
       id="clipPath2">
      <path
         d="M 0,0 H 400 V 400 H 0 Z"
         transform="translate(-312.14941,-400.00001)"
         id="path2" />
    </clipPath>
    <clipPath
       clipPathUnits="userSpaceOnUse"
       id="clipPath4">
      <path
         d="M 0,0 H 400 V 400 H 0 Z"
         transform="translate(-204.832,-248.71921)"
         id="path4" />
    </clipPath>
    <clipPath
       clipPathUnits="userSpaceOnUse"
       id="clipPath6">
      <path
         d="M 0,0 H 400 V 400 H 0 Z"
         transform="translate(-202.56541,-108.6035)"
         id="path6" />
    </clipPath>
    <clipPath
       clipPathUnits="userSpaceOnUse"
       id="clipPath8">
      <path
         d="M 0,0 H 400 V 400 H 0 Z"
         transform="translate(-104.00001,-108.6035)"
         id="path8" />
    </clipPath>
    <clipPath
       clipPathUnits="userSpaceOnUse"
       id="clipPath10">
      <path
         d="M 0,0 H 400 V 400 H 0 Z"
         transform="translate(-301.12991,-108.6035)"
         id="path10" />
    </clipPath>
    <clipPath
       clipPathUnits="userSpaceOnUse"
       id="clipPath12">
      <path
         d="M 0,0 H 400 V 400 H 0 Z"
         transform="translate(-182.16501,-247.7573)"
         id="path12" />
    </clipPath>
  </defs>
  <g
     id="layer-MC0">
    <path
       id="path1"
       d="m 0,0 h -224.299 c -48.441,0 -87.85,-39.41 -87.85,-87.851 v -224.298 c 0,-48.442 39.409,-87.851 87.85,-87.851 H 0 c 48.441,0 87.851,39.409 87.851,87.851 V -87.851 C 87.851,-39.41 48.441,0 0,0 m 0,-13.084 c 41.293,0 74.767,-33.474 74.767,-74.767 v -224.298 c 0,-41.293 -33.474,-74.767 -74.767,-74.767 h -224.299 c -41.292,0 -74.766,33.474 -74.766,74.767 v 224.298 c 0,41.293 33.474,74.767 74.766,74.767 H 0"
       style="fill:#000000;fill-opacity:1;fill-rule:nonzero;stroke:none"
       transform="matrix(1.3333333,0,0,-1.3333333,416.1992,0)"
       clip-path="url(#clipPath2)" />
    <path
       id="path3"
       d="m 0,0 c -35.689,0 -65.84,-15.594 -65.84,-34.052 0,-18.457 30.151,-34.05 65.84,-34.05 35.686,0 65.837,15.593 65.837,34.05 C 65.837,-15.594 35.686,0 0,0 m 0,-81.186 c -44.257,0 -78.924,20.703 -78.924,47.134 0,26.431 34.667,47.136 78.924,47.136 44.254,0 78.921,-20.705 78.921,-47.136 0,-26.431 -34.667,-47.134 -78.921,-47.134"
       style="fill:#000000;fill-opacity:1;fill-rule:nonzero;stroke:none"
       transform="matrix(1.3333333,0,0,-1.3333333,273.10933,201.70773)"
       clip-path="url(#clipPath4)" />
    <path
       id="path5"
       d="m 0,0 c -3.615,0 -6.542,2.928 -6.542,6.542 v 58.93 c 0,3.614 2.927,6.542 6.542,6.542 3.614,0 6.542,-2.928 6.542,-6.542 V 6.542 C 6.542,2.928 3.614,0 0,0"
       style="fill:#000000;fill-opacity:1;fill-rule:nonzero;stroke:none"
       transform="matrix(1.3333333,0,0,-1.3333333,270.0872,388.52867)"
       clip-path="url(#clipPath6)" />
    <path
       id="path7"
       d="m 0,0 c -3.614,0 -6.542,2.928 -6.542,6.542 0,22.835 8.893,44.302 25.036,60.445 l 16.72,16.72 c 2.556,2.556 6.696,2.556 9.251,0 2.556,-2.554 2.556,-6.695 0,-9.251 L 27.745,57.736 C 14.073,44.061 6.542,25.88 6.542,6.542 6.542,2.928 3.614,0 0,0"
       style="fill:#000000;fill-opacity:1;fill-rule:nonzero;stroke:none"
       transform="matrix(1.3333333,0,0,-1.3333333,138.66667,388.52867)"
       clip-path="url(#clipPath8)" />
    <path
       id="path9"
       d="m 0,0 c -3.613,0 -6.542,2.928 -6.542,6.542 0,19.338 -7.531,37.519 -21.206,51.194 l -16.717,16.72 c -2.556,2.556 -2.556,6.697 0,9.253 2.559,2.554 6.699,2.55 9.251,-0.002 l 16.716,-16.72 C -2.351,50.84 6.543,29.374 6.543,6.542 6.543,2.928 3.614,0 0,0"
       style="fill:#000000;fill-opacity:1;fill-rule:nonzero;stroke:none"
       transform="matrix(1.3333333,0,0,-1.3333333,401.50653,388.52867)"
       clip-path="url(#clipPath10)" />
    <path
       id="path11"
       d="m 0,0 c -1.676,0 -3.348,0.639 -4.625,1.917 -2.556,2.553 -2.556,6.697 0,9.25 l 30.6,30.603 c 14.931,14.927 39.219,14.931 54.15,0 2.556,-2.554 2.556,-6.698 0,-9.251 -2.555,-2.556 -6.695,-2.556 -9.25,0 -9.832,9.829 -25.825,9.827 -35.649,-0.002 L 4.625,1.917 C 3.348,0.639 1.676,0 0,0"
       style="fill:#000000;fill-opacity:1;fill-rule:nonzero;stroke:none"
       transform="matrix(1.3333333,0,0,-1.3333333,242.88667,202.99027)"
       clip-path="url(#clipPath12)" />
  </g>
</svg>
