<?xml version="1.0" encoding="UTF-8" standalone="no"?>
<!-- Created with Inkscape (http://www.inkscape.org/) -->

<svg
   version="1.1"
   id="svg1"
   width="533.33331"
   height="533.33331"
   viewBox="0 0 533.33331 533.33331"
   xmlns="http://www.w3.org/2000/svg"
   xmlns:svg="http://www.w3.org/2000/svg">
  <defs
     id="defs1">
    <clipPath
       clipPathUnits="userSpaceOnUse"
       id="clipPath2">
      <path
         d="M 0,0 H 400 V 400 H 0 Z"
         transform="translate(-312.14941,-400.00001)"
         id="path2" />
    </clipPath>
    <clipPath
       clipPathUnits="userSpaceOnUse"
       id="clipPath4">
      <path
         d="M 0,0 H 400 V 400 H 0 Z"
         transform="translate(-161.3706,-104.36131)"
         id="path4" />
    </clipPath>
    <clipPath
       clipPathUnits="userSpaceOnUse"
       id="clipPath6">
      <path
         d="M 0,0 H 400 V 400 H 0 Z"
         transform="translate(-161.3706,-97.819302)"
         id="path6" />
    </clipPath>
    <clipPath
       clipPathUnits="userSpaceOnUse"
       id="clipPath8">
      <path
         d="M 0,0 H 400 V 400 H 0 Z"
         transform="translate(-238.62891,-104.36131)"
         id="path8" />
    </clipPath>
    <clipPath
       clipPathUnits="userSpaceOnUse"
       id="clipPath10">
      <path
         d="M 0,0 H 400 V 400 H 0 Z"
         transform="translate(-238.62991,-97.819302)"
         id="path10" />
    </clipPath>
    <clipPath
       clipPathUnits="userSpaceOnUse"
       id="clipPath12">
      <path
         d="M 0,0 H 400 V 400 H 0 Z"
         transform="translate(-276.20701,-104.36131)"
         id="path12" />
    </clipPath>
    <clipPath
       clipPathUnits="userSpaceOnUse"
       id="clipPath14">
      <path
         d="M 0,0 H 400 V 400 H 0 Z"
         transform="translate(-276.20701,-97.819302)"
         id="path14" />
    </clipPath>
    <clipPath
       clipPathUnits="userSpaceOnUse"
       id="clipPath16">
      <path
         d="M 0,0 H 400 V 400 H 0 Z"
         transform="translate(-353.46581,-104.36131)"
         id="path16" />
    </clipPath>
    <clipPath
       clipPathUnits="userSpaceOnUse"
       id="clipPath18">
      <path
         d="M 0,0 H 400 V 400 H 0 Z"
         transform="translate(-353.46681,-97.819302)"
         id="path18" />
    </clipPath>
    <clipPath
       clipPathUnits="userSpaceOnUse"
       id="clipPath20">
      <path
         d="M 0,0 H 400 V 400 H 0 Z"
         transform="translate(-46.534201,-104.36131)"
         id="path20" />
    </clipPath>
    <clipPath
       clipPathUnits="userSpaceOnUse"
       id="clipPath22">
      <path
         d="M 0,0 H 400 V 400 H 0 Z"
         transform="translate(-46.534201,-97.819302)"
         id="path22" />
    </clipPath>
    <clipPath
       clipPathUnits="userSpaceOnUse"
       id="clipPath24">
      <path
         d="M 0,0 H 400 V 400 H 0 Z"
         transform="translate(-123.793,-104.36131)"
         id="path24" />
    </clipPath>
    <clipPath
       clipPathUnits="userSpaceOnUse"
       id="clipPath26">
      <path
         d="M 0,0 H 400 V 400 H 0 Z"
         transform="translate(-123.7939,-97.819302)"
         id="path26" />
    </clipPath>
    <clipPath
       clipPathUnits="userSpaceOnUse"
       id="clipPath28">
      <path
         d="M 0,0 H 400 V 400 H 0 Z"
         transform="translate(-277.45311,-217.4453)"
         id="path28" />
    </clipPath>
    <clipPath
       clipPathUnits="userSpaceOnUse"
       id="clipPath30">
      <path
         d="M 0,0 H 400 V 400 H 0 Z"
         transform="translate(-277.4521,-210.9038)"
         id="path30" />
    </clipPath>
    <clipPath
       clipPathUnits="userSpaceOnUse"
       id="clipPath32">
      <path
         d="M 0,0 H 400 V 400 H 0 Z"
         transform="translate(-354.71191,-217.4453)"
         id="path32" />
    </clipPath>
    <clipPath
       clipPathUnits="userSpaceOnUse"
       id="clipPath34">
      <path
         d="M 0,0 H 400 V 400 H 0 Z"
         transform="translate(-354.71191,-210.9038)"
         id="path34" />
    </clipPath>
  </defs>
  <g
     id="layer-MC0">
    <path
       id="path1"
       d="m 0,0 h -224.299 c -48.441,0 -87.85,-39.41 -87.85,-87.851 v -224.298 c 0,-48.442 39.409,-87.851 87.85,-87.851 H 0 c 48.441,0 87.851,39.409 87.851,87.851 V -87.851 C 87.851,-39.41 48.441,0 0,0 m 0,-13.084 c 41.293,0 74.767,-33.474 74.767,-74.767 v -224.298 c 0,-41.293 -33.474,-74.767 -74.767,-74.767 h -224.299 c -41.292,0 -74.766,33.474 -74.766,74.767 v 224.298 c 0,41.293 33.474,74.767 74.766,74.767 H 0"
       style="fill:#000000;fill-opacity:1;fill-rule:nonzero;stroke:none"
       transform="matrix(1.3333333,0,0,-1.3333333,416.1992,0)"
       clip-path="url(#clipPath2)" />
    <path
       id="path3"
       d="M 0,0 77.258,77.259"
       style="fill:#ffffff;fill-opacity:1;fill-rule:nonzero;stroke:none"
       transform="matrix(1.3333333,0,0,-1.3333333,215.1608,394.18493)"
       clip-path="url(#clipPath4)" />
    <path
       id="path5"
       d="m 0,0 c -1.676,0 -3.348,0.639 -4.625,1.917 -2.556,2.556 -2.556,6.695 0,9.251 l 77.259,77.26 c 2.556,2.555 6.696,2.555 9.251,0 2.556,-2.556 2.556,-6.696 0,-9.251 L 4.625,1.917 C 3.348,0.639 1.676,0 0,0"
       style="fill:#000000;fill-opacity:1;fill-rule:nonzero;stroke:none"
       transform="matrix(1.3333333,0,0,-1.3333333,215.1608,402.9076)"
       clip-path="url(#clipPath6)" />
    <path
       id="path7"
       d="M 0,0 -77.258,77.259"
       style="fill:#ffffff;fill-opacity:1;fill-rule:nonzero;stroke:none"
       transform="matrix(1.3333333,0,0,-1.3333333,318.17187,394.18493)"
       clip-path="url(#clipPath8)" />
    <path
       id="path9"
       d="m 0,0 c -1.675,0 -3.348,0.639 -4.625,1.917 l -77.26,77.26 c -2.555,2.555 -2.555,6.695 0,9.251 2.556,2.555 6.696,2.555 9.251,0 L 4.626,11.168 C 7.182,8.612 7.182,4.473 4.626,1.917 3.348,0.639 1.676,0 0,0"
       style="fill:#000000;fill-opacity:1;fill-rule:nonzero;stroke:none"
       transform="matrix(1.3333333,0,0,-1.3333333,318.1732,402.9076)"
       clip-path="url(#clipPath10)" />
    <path
       id="path11"
       d="M 0,0 77.259,77.259"
       style="fill:#ffffff;fill-opacity:1;fill-rule:nonzero;stroke:none"
       transform="matrix(1.3333333,0,0,-1.3333333,368.276,394.18493)"
       clip-path="url(#clipPath12)" />
    <path
       id="path13"
       d="m 0,0 c -1.676,0 -3.348,0.639 -4.625,1.917 -2.556,2.556 -2.556,6.695 0,9.251 l 77.26,77.26 c 2.554,2.555 6.695,2.555 9.25,0 2.555,-2.556 2.555,-6.696 0,-9.251 L 4.625,1.917 C 3.348,0.639 1.676,0 0,0"
       style="fill:#000000;fill-opacity:1;fill-rule:nonzero;stroke:none"
       transform="matrix(1.3333333,0,0,-1.3333333,368.276,402.9076)"
       clip-path="url(#clipPath14)" />
    <path
       id="path15"
       d="M 0,0 -77.259,77.259"
       style="fill:#ffffff;fill-opacity:1;fill-rule:nonzero;stroke:none"
       transform="matrix(1.3333333,0,0,-1.3333333,471.28773,394.18493)"
       clip-path="url(#clipPath16)" />
    <path
       id="path17"
       d="m 0,0 c -1.676,0 -3.348,0.639 -4.625,1.917 l -77.26,77.26 c -2.555,2.555 -2.555,6.695 0,9.251 2.555,2.555 6.696,2.555 9.25,0 L 4.625,11.168 C 7.181,8.612 7.181,4.473 4.625,1.917 3.348,0.639 1.676,0 0,0"
       style="fill:#000000;fill-opacity:1;fill-rule:nonzero;stroke:none"
       transform="matrix(1.3333333,0,0,-1.3333333,471.28907,402.9076)"
       clip-path="url(#clipPath18)" />
    <path
       id="path19"
       d="M 0,0 77.259,77.259"
       style="fill:#ffffff;fill-opacity:1;fill-rule:nonzero;stroke:none"
       transform="matrix(1.3333333,0,0,-1.3333333,62.0456,394.18493)"
       clip-path="url(#clipPath20)" />
    <path
       id="path21"
       d="m 0,0 c -1.676,0 -3.348,0.639 -4.625,1.917 -2.556,2.556 -2.556,6.695 0,9.251 l 77.259,77.26 c 2.556,2.555 6.696,2.555 9.251,0 2.555,-2.556 2.555,-6.696 0,-9.251 L 4.625,1.917 C 3.348,0.639 1.676,0 0,0"
       style="fill:#000000;fill-opacity:1;fill-rule:nonzero;stroke:none"
       transform="matrix(1.3333333,0,0,-1.3333333,62.0456,402.9076)"
       clip-path="url(#clipPath22)" />
    <path
       id="path23"
       d="M 0,0 -77.259,77.259"
       style="fill:#ffffff;fill-opacity:1;fill-rule:nonzero;stroke:none"
       transform="matrix(1.3333333,0,0,-1.3333333,165.05733,394.18493)"
       clip-path="url(#clipPath24)" />
    <path
       id="path25"
       d="m 0,0 c -1.676,0 -3.348,0.639 -4.625,1.917 l -77.26,77.26 c -2.556,2.555 -2.556,6.695 0,9.251 2.555,2.555 6.695,2.555 9.251,0 L 4.625,11.168 C 7.181,8.612 7.181,4.473 4.625,1.917 3.348,0.639 1.676,0 0,0"
       style="fill:#000000;fill-opacity:1;fill-rule:nonzero;stroke:none"
       transform="matrix(1.3333333,0,0,-1.3333333,165.05853,402.9076)"
       clip-path="url(#clipPath26)" />
    <path
       id="path27"
       d="M 0,0 77.259,77.259"
       style="fill:#ffffff;fill-opacity:1;fill-rule:nonzero;stroke:none"
       transform="matrix(1.3333333,0,0,-1.3333333,369.93747,243.40627)"
       clip-path="url(#clipPath28)" />
    <path
       id="path29"
       d="m 0,0 c -1.676,0 -3.348,0.639 -4.626,1.917 -2.556,2.553 -2.556,6.697 0,9.25 l 77.26,77.258 c 2.554,2.556 6.695,2.556 9.251,0 2.555,-2.553 2.555,-6.697 0,-9.251 L 4.625,1.917 C 3.348,0.639 1.676,0 0,0"
       style="fill:#000000;fill-opacity:1;fill-rule:nonzero;stroke:none"
       transform="matrix(1.3333333,0,0,-1.3333333,369.93613,252.12827)"
       clip-path="url(#clipPath30)" />
    <path
       id="path31"
       d="M 0,0 -77.259,77.259"
       style="fill:#ffffff;fill-opacity:1;fill-rule:nonzero;stroke:none"
       transform="matrix(1.3333333,0,0,-1.3333333,472.9492,243.40627)"
       clip-path="url(#clipPath32)" />
    <path
       id="path33"
       d="m 0,0 c -1.676,0 -3.348,0.639 -4.626,1.917 l -77.26,77.257 c -2.555,2.554 -2.555,6.698 0,9.251 2.556,2.556 6.696,2.556 9.251,0 L 4.625,11.167 C 7.181,8.614 7.181,4.47 4.625,1.917 3.348,0.639 1.676,0 0,0"
       style="fill:#000000;fill-opacity:1;fill-rule:nonzero;stroke:none"
       transform="matrix(1.3333333,0,0,-1.3333333,472.9492,252.12827)"
       clip-path="url(#clipPath34)" />
  </g>
</svg>
