<?xml version="1.0" encoding="UTF-8" standalone="no"?>
<!-- Created with Inkscape (http://www.inkscape.org/) -->

<svg
   version="1.1"
   id="svg1"
   width="533.33331"
   height="533.33331"
   viewBox="0 0 533.33331 533.33331"
   xmlns="http://www.w3.org/2000/svg"
   xmlns:svg="http://www.w3.org/2000/svg">
  <defs
     id="defs1">
    <clipPath
       clipPathUnits="userSpaceOnUse"
       id="clipPath2">
      <path
         d="M 0,0 H 400 V 400 H 0 Z"
         transform="translate(-312.14941,-400.00001)"
         id="path2" />
    </clipPath>
    <clipPath
       clipPathUnits="userSpaceOnUse"
       id="clipPath4">
      <path
         d="M 0,0 H 400 V 400 H 0 Z"
         transform="translate(-126.9453,-160.3174)"
         id="path4" />
    </clipPath>
    <clipPath
       clipPathUnits="userSpaceOnUse"
       id="clipPath6">
      <path
         d="M 0,0 H 400 V 400 H 0 Z"
         transform="translate(-246.16311,-160.3174)"
         id="path6" />
    </clipPath>
    <clipPath
       clipPathUnits="userSpaceOnUse"
       id="clipPath8">
      <path
         d="M 0,0 H 400 V 400 H 0 Z"
         transform="translate(-233.49801,-57.723604)"
         id="path8" />
    </clipPath>
  </defs>
  <g
     id="layer-MC0">
    <path
       id="path1"
       d="m 0,0 h -224.299 c -48.441,0 -87.85,-39.41 -87.85,-87.851 v -224.298 c 0,-48.442 39.409,-87.851 87.85,-87.851 H 0 c 48.441,0 87.851,39.409 87.851,87.851 V -87.851 C 87.851,-39.41 48.441,0 0,0 m 0,-13.084 c 41.292,0 74.767,-33.474 74.767,-74.767 v -224.298 c 0,-41.292 -33.475,-74.767 -74.767,-74.767 h -224.299 c -41.292,0 -74.766,33.475 -74.766,74.767 v 224.298 c 0,41.293 33.474,74.767 74.766,74.767 H 0"
       style="fill:#000000;fill-opacity:1;fill-rule:nonzero;stroke:none"
       transform="matrix(1.3333333,0,0,-1.3333333,416.1992,0)"
       clip-path="url(#clipPath2)" />
    <path
       id="path3"
       d="m 0,0 c -1.449,0 -2.906,0.478 -4.118,1.462 -2.805,2.276 -3.235,6.395 -0.958,9.201 L 97.205,136.738 c 12.172,15.007 31.069,19.265 47.038,10.598 3.176,-1.725 4.352,-5.696 2.628,-8.871 -1.723,-3.171 -5.684,-4.355 -8.871,-2.628 -10.408,5.653 -22.428,2.767 -30.635,-7.342 L 5.083,2.42 C 3.792,0.826 1.904,0 0,0"
       style="fill:#000000;fill-opacity:1;fill-rule:nonzero;stroke:none"
       transform="matrix(1.3333333,0,0,-1.3333333,169.2604,319.5768)"
       clip-path="url(#clipPath4)" />
    <path
       id="path5"
       d="m 0,0 c -1.904,0 -3.792,0.826 -5.084,2.42 l -101.568,125.195 c -8.544,10.529 -20.953,13.192 -31.619,6.781 l -1.495,-0.899 c -3.092,-1.862 -7.117,-0.866 -8.979,2.232 -1.861,3.096 -0.863,7.115 2.233,8.979 l 1.498,0.902 c 16.325,9.815 35.826,5.899 48.522,-9.751 L 5.076,10.663 C 7.353,7.857 6.923,3.738 4.117,1.462 2.905,0.478 1.447,0 0,0"
       style="fill:#000000;fill-opacity:1;fill-rule:nonzero;stroke:none"
       transform="matrix(1.3333333,0,0,-1.3333333,328.21747,319.5768)"
       clip-path="url(#clipPath6)" />
    <path
       id="path7"
       d="m 0,0 c -1.903,0 -3.791,0.824 -5.083,2.42 l -36.478,44.966 83.712,103.185 c 2.286,2.807 6.4,3.233 9.203,0.958 2.808,-2.276 3.235,-6.396 0.959,-9.201 L -24.713,47.386 5.076,10.663 C 7.353,7.854 6.924,3.738 4.118,1.46 2.906,0.478 1.448,0 0,0"
       style="fill:#000000;fill-opacity:1;fill-rule:nonzero;stroke:none"
       transform="matrix(1.3333333,0,0,-1.3333333,311.33067,456.36853)"
       clip-path="url(#clipPath8)" />
  </g>
</svg>
