<?xml version="1.0" encoding="UTF-8" standalone="no"?>
<!-- Created with Inkscape (http://www.inkscape.org/) -->

<svg
   version="1.1"
   id="svg1"
   width="533.33331"
   height="533.33331"
   viewBox="0 0 533.33331 533.33331"
   xmlns="http://www.w3.org/2000/svg"
   xmlns:svg="http://www.w3.org/2000/svg">
  <defs
     id="defs1">
    <clipPath
       clipPathUnits="userSpaceOnUse"
       id="clipPath2">
      <path
         d="M 0,0 H 400 V 400 H 0 Z"
         transform="translate(-312.14941,-400.00001)"
         id="path2" />
    </clipPath>
    <clipPath
       clipPathUnits="userSpaceOnUse"
       id="clipPath4">
      <path
         d="M 0,0 H 400 V 400 H 0 Z"
         transform="translate(-142.2837,-194.7715)"
         id="path4" />
    </clipPath>
    <clipPath
       clipPathUnits="userSpaceOnUse"
       id="clipPath6">
      <path
         d="M 0,0 H 400 V 400 H 0 Z"
         transform="translate(-66.067901,-121.2646)"
         id="path6" />
    </clipPath>
    <clipPath
       clipPathUnits="userSpaceOnUse"
       id="clipPath8">
      <path
         d="M 0,0 H 400 V 400 H 0 Z"
         transform="translate(-333.93071,-121.2646)"
         id="path8" />
    </clipPath>
    <clipPath
       clipPathUnits="userSpaceOnUse"
       id="clipPath10">
      <path
         d="M 0,0 H 400 V 400 H 0 Z"
         transform="translate(-266.96581,-188.2295)"
         id="path10" />
    </clipPath>
    <clipPath
       clipPathUnits="userSpaceOnUse"
       id="clipPath12">
      <path
         d="M 0,0 H 400 V 400 H 0 Z"
         transform="translate(-133.0327,-188.2295)"
         id="path12" />
    </clipPath>
    <clipPath
       clipPathUnits="userSpaceOnUse"
       id="clipPath14">
      <path
         d="M 0,0 H 400 V 400 H 0 Z"
         transform="translate(-166.5171,-87.781302)"
         id="path14" />
    </clipPath>
    <clipPath
       clipPathUnits="userSpaceOnUse"
       id="clipPath16">
      <path
         d="M 0,0 H 400 V 400 H 0 Z"
         transform="translate(-233.4814,-87.781302)"
         id="path16" />
    </clipPath>
    <clipPath
       clipPathUnits="userSpaceOnUse"
       id="clipPath18">
      <path
         d="M 0,0 H 400 V 400 H 0 Z"
         transform="translate(-200.00101,-255.19631)"
         id="path18" />
    </clipPath>
    <clipPath
       clipPathUnits="userSpaceOnUse"
       id="clipPath20">
      <path
         d="M 0,0 H 400 V 400 H 0 Z"
         transform="translate(-200.00101,-255.19631)"
         id="path20" />
    </clipPath>
  </defs>
  <g
     id="layer-MC0">
    <path
       id="path1"
       d="m 0,0 h -224.299 c -48.441,0 -87.85,-39.41 -87.85,-87.851 v -224.298 c 0,-48.442 39.409,-87.851 87.85,-87.851 H 0 c 48.441,0 87.851,39.409 87.851,87.851 V -87.851 C 87.851,-39.41 48.441,0 0,0 m 0,-13.084 c 41.293,0 74.767,-33.474 74.767,-74.767 v -224.298 c 0,-41.293 -33.474,-74.767 -74.767,-74.767 h -224.299 c -41.292,0 -74.766,33.474 -74.766,74.767 v 224.298 c 0,41.293 33.474,74.767 74.766,74.767 H 0"
       style="fill:#000000;fill-opacity:1;fill-rule:nonzero;stroke:none"
       transform="matrix(1.3333333,0,0,-1.3333333,416.1992,0)"
       clip-path="url(#clipPath2)" />
    <path
       id="path3"
       d="M 0,0 57.717,-57.714 115.431,0 57.717,57.714 Z M 57.717,-76.215 -18.502,0 57.717,76.22 133.933,0 Z"
       style="fill:#000000;fill-opacity:1;fill-rule:nonzero;stroke:none"
       transform="matrix(1.3333333,0,0,-1.3333333,189.7116,273.638)"
       clip-path="url(#clipPath4)" />
    <path
       id="path5"
       d="m 0,0 c -1.676,0 -3.348,0.64 -4.625,1.917 -2.556,2.554 -2.556,6.697 0,9.251 l 66.964,66.965 c 2.556,2.555 6.696,2.555 9.251,0 2.556,-2.554 2.556,-6.697 0,-9.251 L 4.625,1.917 C 3.348,0.64 1.676,0 0,0"
       style="fill:#000000;fill-opacity:1;fill-rule:nonzero;stroke:none"
       transform="matrix(1.3333333,0,0,-1.3333333,88.090533,371.6472)"
       clip-path="url(#clipPath6)" />
    <path
       id="path7"
       d="M 0,0 C -1.676,0 -3.348,0.64 -4.625,1.917 L -71.59,68.882 c -2.556,2.554 -2.556,6.697 0,9.251 2.555,2.555 6.695,2.555 9.251,0 L 4.626,11.168 C 7.181,8.614 7.181,4.471 4.626,1.917 3.348,0.64 1.676,0 0,0"
       style="fill:#000000;fill-opacity:1;fill-rule:nonzero;stroke:none"
       transform="matrix(1.3333333,0,0,-1.3333333,445.24093,371.6472)"
       clip-path="url(#clipPath8)" />
    <path
       id="path9"
       d="m 0,0 c -1.676,0 -3.348,0.64 -4.625,1.917 -2.556,2.554 -2.556,6.697 0,9.251 L 62.34,78.134 c 2.555,2.556 6.695,2.556 9.251,0 2.555,-2.553 2.555,-6.697 0,-9.25 L 4.626,1.917 C 3.348,0.64 1.676,0 0,0"
       style="fill:#000000;fill-opacity:1;fill-rule:nonzero;stroke:none"
       transform="matrix(1.3333333,0,0,-1.3333333,355.9544,282.36067)"
       clip-path="url(#clipPath10)" />
    <path
       id="path11"
       d="M 0,0 C -1.676,0 -3.348,0.64 -4.625,1.917 L -71.59,68.884 c -2.556,2.553 -2.556,6.697 0,9.25 2.555,2.556 6.695,2.556 9.251,0 L 4.625,11.168 C 7.181,8.614 7.181,4.471 4.625,1.917 3.348,0.64 1.676,0 0,0"
       style="fill:#000000;fill-opacity:1;fill-rule:nonzero;stroke:none"
       transform="matrix(1.3333333,0,0,-1.3333333,177.37693,282.36067)"
       clip-path="url(#clipPath12)" />
    <path
       id="path13"
       d="m 0,0 c -1.676,0 -3.348,0.639 -4.625,1.916 -2.556,2.556 -2.556,6.695 0,9.251 l 33.483,33.484 c 2.556,2.556 6.696,2.556 9.252,0 2.555,-2.553 2.555,-6.697 0,-9.251 L 4.625,1.916 C 3.348,0.639 1.675,0 0,0"
       style="fill:#000000;fill-opacity:1;fill-rule:nonzero;stroke:none"
       transform="matrix(1.3333333,0,0,-1.3333333,222.0228,416.2916)"
       clip-path="url(#clipPath14)" />
    <path
       id="path15"
       d="M 0,0 C -1.676,0 -3.348,0.639 -4.625,1.916 L -38.106,35.4 c -2.555,2.556 -2.555,6.698 0,9.251 2.556,2.556 6.696,2.556 9.252,0 L 4.626,11.167 C 7.182,8.611 7.182,4.472 4.626,1.916 3.348,0.639 1.676,0 0,0"
       style="fill:#000000;fill-opacity:1;fill-rule:nonzero;stroke:none"
       transform="matrix(1.3333333,0,0,-1.3333333,311.30853,416.2916)"
       clip-path="url(#clipPath16)" />
    <path
       id="path17"
       d="m 0,0 c -1.675,0 -3.348,0.639 -4.625,1.917 -2.556,2.553 -2.556,6.697 0,9.25 l 33.48,33.483 c 2.556,2.556 6.696,2.556 9.251,0 2.556,-2.554 2.556,-6.697 0,-9.251 L 4.626,1.917 C 3.348,0.639 1.676,0 0,0"
       style="fill:#000000;fill-opacity:1;fill-rule:nonzero;stroke:none"
       transform="matrix(1.3333333,0,0,-1.3333333,266.668,193.0716)"
       clip-path="url(#clipPath18)" />
    <path
       id="path19"
       d="m 0,0 c -1.675,0 -3.348,0.639 -4.625,1.917 l -33.484,33.482 c -2.556,2.554 -2.556,6.697 0,9.251 2.555,2.556 6.695,2.556 9.25,0 L 4.626,11.167 C 7.181,8.614 7.181,4.47 4.626,1.917 3.348,0.639 1.676,0 0,0"
       style="fill:#000000;fill-opacity:1;fill-rule:nonzero;stroke:none"
       transform="matrix(1.3333333,0,0,-1.3333333,266.668,193.0716)"
       clip-path="url(#clipPath20)" />
  </g>
</svg>
