<?xml version="1.0" encoding="UTF-8" standalone="no"?>
<!-- Created with Inkscape (http://www.inkscape.org/) -->

<svg
   version="1.1"
   id="svg1"
   width="533.33331"
   height="533.33331"
   viewBox="0 0 533.33331 533.33331"
   xmlns="http://www.w3.org/2000/svg"
   xmlns:svg="http://www.w3.org/2000/svg">
  <defs
     id="defs1">
    <clipPath
       clipPathUnits="userSpaceOnUse"
       id="clipPath2">
      <path
         d="M 0,0 H 400 V 400 H 0 Z"
         transform="translate(-313.20801,-400.00001)"
         id="path2" />
    </clipPath>
    <clipPath
       clipPathUnits="userSpaceOnUse"
       id="clipPath4">
      <path
         d="M 0,0 H 400 V 400 H 0 Z"
         transform="translate(-238.00981,-225.70511)"
         id="path4" />
    </clipPath>
    <clipPath
       clipPathUnits="userSpaceOnUse"
       id="clipPath6">
      <path
         d="M 0,0 H 400 V 400 H 0 Z"
         transform="translate(-143.7388,-131.4316)"
         id="path6" />
    </clipPath>
    <clipPath
       clipPathUnits="userSpaceOnUse"
       id="clipPath8">
      <path
         d="M 0,0 H 400 V 400 H 0 Z"
         transform="translate(-116.9019,-72.457999)"
         id="path8" />
    </clipPath>
    <clipPath
       clipPathUnits="userSpaceOnUse"
       id="clipPath10">
      <path
         d="M 0,0 H 400 V 400 H 0 Z"
         transform="translate(-211.17291,-166.7168)"
         id="path10" />
    </clipPath>
  </defs>
  <g
     id="layer-MC0">
    <path
       id="path1"
       d="m 0,0 h -226.416 c -47.857,0 -86.792,-38.935 -86.792,-86.792 v -226.416 c 0,-47.857 38.935,-86.792 86.792,-86.792 H 0 c 47.857,0 86.792,38.935 86.792,86.792 V -86.792 C 86.792,-38.935 47.857,0 0,0 m 0,-11.321 c 41.682,0 75.472,-33.789 75.472,-75.471 V -313.208 C 75.472,-354.89 41.682,-388.68 0,-388.68 h -226.416 c -41.682,0 -75.471,33.79 -75.471,75.472 v 226.416 c 0,41.682 33.789,75.471 75.471,75.471 H 0"
       style="fill:#000000;fill-opacity:1;fill-rule:nonzero;stroke:none"
       transform="matrix(1.3333333,0,0,-1.3333333,417.61067,0)"
       clip-path="url(#clipPath2)" />
    <path
       id="path3"
       d="m 0,0 c -1.689,0 -3.379,0.645 -4.669,1.935 l -12.048,12.048 c -10.527,10.525 -10.527,27.653 0,38.178 l 42.716,42.718 c 10.524,10.529 27.653,10.529 38.178,0 l 12.052,-12.05 c 2.579,-2.578 2.579,-6.761 0,-9.338 -2.581,-2.58 -6.76,-2.58 -9.339,0 l -12.051,12.05 c -5.377,5.377 -14.125,5.377 -19.502,0 L -7.379,42.823 c -5.377,-5.377 -5.377,-14.125 0,-19.502 L 4.67,11.272 C 7.249,8.695 7.249,4.512 4.67,1.935 3.38,0.645 1.69,0 0,0"
       style="fill:#000000;fill-opacity:1;fill-rule:nonzero;stroke:none"
       transform="matrix(1.3333333,0,0,-1.3333333,317.3464,232.3932)"
       clip-path="url(#clipPath4)" />
    <path
       id="path5"
       d="m 0,0 c -1.689,0 -3.379,0.645 -4.669,1.935 l -12.051,12.05 c -10.526,10.525 -10.526,27.654 0,38.178 l 42.719,42.716 c 5.098,5.1 11.877,7.909 19.089,7.909 7.211,0 13.991,-2.809 19.09,-7.909 L 76.227,82.831 c 2.58,-2.578 2.58,-6.759 0,-9.338 -2.576,-2.58 -6.759,-2.58 -9.338,0 L 54.838,85.542 c -5.21,5.21 -14.292,5.21 -19.5,0 L -7.381,42.825 c -5.377,-5.377 -5.377,-14.125 0,-19.502 L 4.669,11.271 c 2.58,-2.576 2.58,-6.758 0,-9.336 C 3.379,0.645 1.689,0 0,0"
       style="fill:#000000;fill-opacity:1;fill-rule:nonzero;stroke:none"
       transform="matrix(1.3333333,0,0,-1.3333333,191.65173,358.0912)"
       clip-path="url(#clipPath6)" />
    <path
       id="path7"
       d="m 0,0 c -6.914,0 -13.827,2.632 -19.089,7.894 l -12.051,12.05 c -2.579,2.579 -2.579,6.759 0,9.338 2.58,2.58 6.759,2.58 9.339,0 l 12.05,-12.05 c 5.376,-5.373 14.125,-5.373 19.501,0 L 52.467,59.95 c 5.377,5.377 5.377,14.125 0,19.502 L 40.418,91.501 c -2.579,2.577 -2.579,6.76 0,9.338 2.58,2.579 6.759,2.579 9.339,0 L 61.805,88.79 c 10.527,-10.524 10.527,-27.653 0,-38.178 L 19.089,7.894 C 13.827,2.632 6.913,0 0,0"
       style="fill:#000000;fill-opacity:1;fill-rule:nonzero;stroke:none"
       transform="matrix(1.3333333,0,0,-1.3333333,155.8692,436.72267)"
       clip-path="url(#clipPath8)" />
    <path
       id="path9"
       d="m 0,0 c -7.212,0 -13.99,2.809 -19.091,7.908 l -12.048,12.049 c -2.58,2.578 -2.58,6.759 0,9.338 2.576,2.58 6.758,2.58 9.338,0 l 12.05,-12.049 c 5.211,-5.21 14.293,-5.21 19.5,0 L 52.47,59.963 c 5.376,5.376 5.376,14.125 0,19.501 L 40.419,91.515 c -2.58,2.578 -2.58,6.76 0,9.338 2.579,2.58 6.759,2.58 9.338,0 l 12.051,-12.05 c 10.526,-10.525 10.526,-27.654 0,-38.178 L 19.089,7.908 C 13.991,2.809 7.212,0 0,0"
       style="fill:#000000;fill-opacity:1;fill-rule:nonzero;stroke:none"
       transform="matrix(1.3333333,0,0,-1.3333333,281.56387,311.04427)"
       clip-path="url(#clipPath10)" />
  </g>
</svg>
