<?xml version="1.0" encoding="UTF-8" standalone="no"?>
<!-- Created with Inkscape (http://www.inkscape.org/) -->

<svg
   version="1.1"
   id="svg1"
   width="533.33331"
   height="533.33331"
   viewBox="0 0 533.33331 533.33331"
   xmlns="http://www.w3.org/2000/svg"
   xmlns:svg="http://www.w3.org/2000/svg">
  <defs
     id="defs1">
    <clipPath
       clipPathUnits="userSpaceOnUse"
       id="clipPath2">
      <path
         d="M 0,0 H 400 V 400 H 0 Z"
         transform="translate(-312.14941,-400.00001)"
         id="path2" />
    </clipPath>
    <clipPath
       clipPathUnits="userSpaceOnUse"
       id="clipPath4">
      <path
         d="M 0,0 H 400 V 400 H 0 Z"
         transform="translate(-141.4668,-193.25101)"
         id="path4" />
    </clipPath>
    <clipPath
       clipPathUnits="userSpaceOnUse"
       id="clipPath6">
      <path
         d="M 0,0 H 400 V 400 H 0 Z"
         transform="translate(-331.22271,-150.4883)"
         id="path6" />
    </clipPath>
    <clipPath
       clipPathUnits="userSpaceOnUse"
       id="clipPath8">
      <path
         d="M 0,0 H 400 V 400 H 0 Z"
         transform="translate(-133.47561,-186.707)"
         id="path8" />
    </clipPath>
  </defs>
  <g
     id="layer-MC0">
    <path
       id="path1"
       d="m 0,0 h -224.299 c -48.441,0 -87.85,-39.41 -87.85,-87.851 v -224.298 c 0,-48.442 39.409,-87.851 87.85,-87.851 H 0 c 48.441,0 87.851,39.409 87.851,87.851 V -87.851 C 87.851,-39.41 48.441,0 0,0 m 0,-13.084 c 41.293,0 74.767,-33.474 74.767,-74.767 v -224.298 c 0,-41.293 -33.474,-74.767 -74.767,-74.767 h -224.299 c -41.292,0 -74.766,33.474 -74.766,74.767 v 224.298 c 0,41.293 33.474,74.767 74.766,74.767 H 0"
       style="fill:#000000;fill-opacity:1;fill-rule:nonzero;stroke:none"
       transform="matrix(1.3333333,0,0,-1.3333333,416.1992,0)"
       clip-path="url(#clipPath2)" />
    <path
       id="path3"
       d="m 0,0 c 15.618,-21.03 40.143,-33.453 66.461,-33.453 26.314,0 50.84,12.423 66.458,33.453 C 117.297,21.028 92.771,33.453 66.461,33.453 40.147,33.453 15.622,21.028 0,0 m 66.461,-46.538 c -32.188,0 -62.058,16.045 -79.903,42.918 l -2.402,3.62 2.402,3.619 c 17.849,26.873 47.718,42.918 79.903,42.918 32.181,0 62.051,-16.045 79.903,-42.918 L 148.767,0 146.364,-3.62 C 128.512,-30.493 98.642,-46.538 66.461,-46.538"
       style="fill:#000000;fill-opacity:1;fill-rule:nonzero;stroke:none"
       transform="matrix(1.3333333,0,0,-1.3333333,188.6224,275.66533)"
       clip-path="url(#clipPath4)" />
    <path
       id="path5"
       d="m 0,0 c -0.62,0 -1.252,0.088 -1.88,0.273 -21.407,6.412 -40.022,20.214 -52.413,38.87 l -2.402,3.62 2.402,3.619 c 12.391,18.655 31.002,32.46 52.413,38.869 3.45,1.041 7.105,-0.929 8.145,-4.39 C 7.302,77.4 5.334,73.753 1.873,72.718 -15.201,67.605 -30.22,57.042 -40.848,42.763 -30.22,28.482 -15.201,17.921 1.873,12.811 5.334,11.773 7.302,8.126 6.265,4.665 5.414,1.829 2.815,0 0,0"
       style="fill:#000000;fill-opacity:1;fill-rule:nonzero;stroke:none"
       transform="matrix(1.3333333,0,0,-1.3333333,441.63027,332.68227)"
       clip-path="url(#clipPath6)" />
    <path
       id="path7"
       d="m 0,0 h -79.136 c -3.614,0 -6.542,2.932 -6.542,6.544 0,3.612 2.928,6.541 6.542,6.541 H 0 c 3.614,0 6.542,-2.929 6.542,-6.541 C 6.542,2.932 3.614,0 0,0"
       style="fill:#000000;fill-opacity:1;fill-rule:nonzero;stroke:none"
       transform="matrix(1.3333333,0,0,-1.3333333,177.96747,284.39067)"
       clip-path="url(#clipPath8)" />
  </g>
</svg>
