<?xml version="1.0" encoding="UTF-8" standalone="no"?>
<!-- Created with Inkscape (http://www.inkscape.org/) -->

<svg
   version="1.1"
   id="svg1"
   width="533.33331"
   height="533.33331"
   viewBox="0 0 533.33331 533.33331"
   xmlns="http://www.w3.org/2000/svg"
   xmlns:svg="http://www.w3.org/2000/svg">
  <defs
     id="defs1">
    <clipPath
       clipPathUnits="userSpaceOnUse"
       id="clipPath2">
      <path
         d="M 0,0 H 400 V 400 H 0 Z"
         transform="translate(-312.14941,-400.00001)"
         id="path2" />
    </clipPath>
    <clipPath
       clipPathUnits="userSpaceOnUse"
       id="clipPath4">
      <path
         d="M 0,0 H 400 V 400 H 0 Z"
         transform="translate(-203.58201,-253.25201)"
         id="path4" />
    </clipPath>
    <clipPath
       clipPathUnits="userSpaceOnUse"
       id="clipPath6">
      <path
         d="M 0,0 H 400 V 400 H 0 Z"
         transform="translate(-201.3154,-113.1377)"
         id="path6" />
    </clipPath>
    <clipPath
       clipPathUnits="userSpaceOnUse"
       id="clipPath8">
      <path
         d="M 0,0 H 400 V 400 H 0 Z"
         transform="translate(-102.75,-113.1377)"
         id="path8" />
    </clipPath>
    <clipPath
       clipPathUnits="userSpaceOnUse"
       id="clipPath10">
      <path
         d="M 0,0 H 400 V 400 H 0 Z"
         transform="translate(-299.88091,-113.1377)"
         id="path10" />
    </clipPath>
  </defs>
  <g
     id="layer-MC0">
    <path
       id="path1"
       d="m 0,0 h -224.299 c -48.441,0 -87.85,-39.41 -87.85,-87.851 v -224.298 c 0,-48.442 39.409,-87.851 87.85,-87.851 H 0 c 48.441,0 87.851,39.409 87.851,87.851 V -87.851 C 87.851,-39.41 48.441,0 0,0 m 0,-13.084 c 41.292,0 74.767,-33.474 74.767,-74.767 v -224.298 c 0,-41.293 -33.475,-74.767 -74.767,-74.767 h -224.299 c -41.292,0 -74.766,33.474 -74.766,74.767 v 224.298 c 0,41.293 33.474,74.767 74.766,74.767 H 0"
       style="fill:#000000;fill-opacity:1;fill-rule:nonzero;stroke:none"
       transform="matrix(1.3333333,0,0,-1.3333333,416.1992,0)"
       clip-path="url(#clipPath2)" />
    <path
       id="path3"
       d="m 0,0 c -35.685,0 -65.836,-15.592 -65.836,-34.05 0,-18.458 30.151,-34.051 65.836,-34.051 35.686,0 65.837,15.593 65.837,34.051 C 65.837,-15.592 35.686,0 0,0 m 0,-81.185 c -44.253,0 -78.92,20.705 -78.92,47.135 0,26.431 34.667,47.134 78.92,47.134 44.254,0 78.921,-20.703 78.921,-47.134 0,-26.43 -34.667,-47.135 -78.921,-47.135"
       style="fill:#000000;fill-opacity:1;fill-rule:nonzero;stroke:none"
       transform="matrix(1.3333333,0,0,-1.3333333,271.44267,195.664)"
       clip-path="url(#clipPath4)" />
    <path
       id="path5"
       d="m 0,0 c -3.614,0 -6.542,2.928 -6.542,6.542 v 58.93 c 0,3.614 2.928,6.542 6.542,6.542 3.614,0 6.542,-2.928 6.542,-6.542 V 6.542 C 6.542,2.928 3.614,0 0,0"
       style="fill:#000000;fill-opacity:1;fill-rule:nonzero;stroke:none"
       transform="matrix(1.3333333,0,0,-1.3333333,268.42053,382.48307)"
       clip-path="url(#clipPath6)" />
    <path
       id="path7"
       d="m 0,0 c -3.614,0 -6.542,2.928 -6.542,6.542 0,22.835 8.893,44.302 25.037,60.445 l 16.72,16.718 c 2.555,2.556 6.695,2.556 9.25,0 2.556,-2.556 2.556,-6.697 0,-9.253 L 27.745,57.736 C 14.073,44.061 6.542,25.88 6.542,6.542 6.542,2.928 3.614,0 0,0"
       style="fill:#000000;fill-opacity:1;fill-rule:nonzero;stroke:none"
       transform="matrix(1.3333333,0,0,-1.3333333,137,382.48307)"
       clip-path="url(#clipPath8)" />
    <path
       id="path9"
       d="m 0,0 c -3.614,0 -6.542,2.928 -6.542,6.542 0,19.342 -7.532,37.522 -21.207,51.194 l -16.717,16.716 c -2.555,2.558 -2.555,6.699 0,9.253 2.556,2.556 6.695,2.556 9.251,0 L -18.498,66.987 C -2.352,50.844 6.542,29.377 6.542,6.542 6.542,2.928 3.614,0 0,0"
       style="fill:#000000;fill-opacity:1;fill-rule:nonzero;stroke:none"
       transform="matrix(1.3333333,0,0,-1.3333333,399.8412,382.48307)"
       clip-path="url(#clipPath10)" />
  </g>
</svg>
