<?xml version="1.0" encoding="UTF-8" standalone="no"?>
<!-- Created with Inkscape (http://www.inkscape.org/) -->

<svg
   version="1.1"
   id="svg1"
   width="533.33331"
   height="533.33331"
   viewBox="0 0 533.33331 533.33331"
   xmlns="http://www.w3.org/2000/svg"
   xmlns:svg="http://www.w3.org/2000/svg">
  <defs
     id="defs1">
    <clipPath
       clipPathUnits="userSpaceOnUse"
       id="clipPath2">
      <path
         d="M 0,0 H 400 V 400 H 0 Z"
         transform="translate(-312.14941,-400.00001)"
         id="path2" />
    </clipPath>
    <clipPath
       clipPathUnits="userSpaceOnUse"
       id="clipPath4">
      <path
         d="M 0,0 H 400 V 400 H 0 Z"
         transform="translate(-200.00001,-228.03811)"
         id="path4" />
    </clipPath>
  </defs>
  <g
     id="layer-MC0">
    <path
       id="path1"
       d="m 0,0 h -224.299 c -48.441,0 -87.85,-39.41 -87.85,-87.851 v -224.298 c 0,-48.442 39.409,-87.851 87.85,-87.851 H 0 c 48.441,0 87.851,39.409 87.851,87.851 V -87.851 C 87.851,-39.41 48.441,0 0,0 m 0,-13.084 c 41.292,0 74.767,-33.474 74.767,-74.767 v -224.298 c 0,-41.293 -33.475,-74.767 -74.767,-74.767 h -224.299 c -41.292,0 -74.766,33.474 -74.766,74.767 v 224.298 c 0,41.293 33.474,74.767 74.766,74.767 H 0"
       style="fill:#000000;fill-opacity:1;fill-rule:nonzero;stroke:none"
       transform="matrix(1.3333333,0,0,-1.3333333,416.1992,0)"
       clip-path="url(#clipPath2)" />
    <path
       id="path3"
       d="m 0,0 c -18.038,0 -32.71,-14.674 -32.71,-32.71 0,-18.036 14.672,-32.712 32.71,-32.712 18.038,0 32.71,14.676 32.71,32.712 C 32.71,-14.674 18.038,0 0,0 m 0,-78.507 c -25.252,0 -45.794,20.543 -45.794,45.797 0,25.252 20.542,45.794 45.794,45.794 25.252,0 45.794,-20.542 45.794,-45.794 0,-25.254 -20.542,-45.797 -45.794,-45.797"
       style="fill:#000000;fill-opacity:1;fill-rule:nonzero;stroke:none"
       transform="matrix(1.3333333,0,0,-1.3333333,266.66667,229.28253)"
       clip-path="url(#clipPath4)" />
  </g>
</svg>
