<?xml version="1.0" encoding="UTF-8" standalone="no"?>
<!-- Created with Inkscape (http://www.inkscape.org/) -->

<svg
   version="1.1"
   id="svg1"
   width="533.33331"
   height="533.33331"
   viewBox="0 0 533.33331 533.33331"
   xmlns="http://www.w3.org/2000/svg"
   xmlns:svg="http://www.w3.org/2000/svg">
  <defs
     id="defs1">
    <clipPath
       clipPathUnits="userSpaceOnUse"
       id="clipPath2">
      <path
         d="M 0,0 H 400 V 400 H 0 Z"
         transform="translate(-312.14941,-400.00001)"
         id="path2" />
    </clipPath>
    <clipPath
       clipPathUnits="userSpaceOnUse"
       id="clipPath4">
      <path
         d="M 0,0 H 400 V 400 H 0 Z"
         transform="translate(-122.2339,-103.90531)"
         id="path4" />
    </clipPath>
  </defs>
  <g
     id="layer-MC0">
    <path
       id="path1"
       d="m 0,0 h -224.299 c -48.441,0 -87.85,-39.41 -87.85,-87.851 v -224.298 c 0,-48.442 39.409,-87.851 87.85,-87.851 H 0 c 48.441,0 87.851,39.409 87.851,87.851 V -87.851 C 87.851,-39.41 48.441,0 0,0 m 0,-13.084 c 41.292,0 74.767,-33.474 74.767,-74.767 v -224.298 c 0,-41.293 -33.475,-74.767 -74.767,-74.767 h -224.299 c -41.292,0 -74.766,33.474 -74.766,74.767 v 224.298 c 0,41.293 33.474,74.767 74.766,74.767 H 0"
       style="fill:#000000;fill-opacity:1;fill-rule:nonzero;stroke:none"
       transform="matrix(1.3333333,0,0,-1.3333333,416.1992,0)"
       clip-path="url(#clipPath2)" />
    <path
       id="path3"
       d="M 0,0 H 155.533 V 108.804 L 77.765,189.316 0,108.804 Z M 168.617,-13.084 H -13.084 V 114.09 l 90.849,94.06 90.852,-94.06 z"
       style="fill:#000000;fill-opacity:1;fill-rule:nonzero;stroke:none"
       transform="matrix(1.3333333,0,0,-1.3333333,162.97853,394.79293)"
       clip-path="url(#clipPath4)" />
  </g>
</svg>
