<?xml version="1.0" encoding="UTF-8" standalone="no"?>
<!-- Created with Inkscape (http://www.inkscape.org/) -->

<svg
   version="1.1"
   id="svg1"
   width="533.33331"
   height="533.33331"
   viewBox="0 0 533.33331 533.33331"
   xmlns="http://www.w3.org/2000/svg"
   xmlns:svg="http://www.w3.org/2000/svg">
  <defs
     id="defs1">
    <clipPath
       clipPathUnits="userSpaceOnUse"
       id="clipPath2">
      <path
         d="M 0,0 H 400 V 400 H 0 Z"
         transform="translate(-312.14941,-400.00001)"
         id="path2" />
    </clipPath>
    <clipPath
       clipPathUnits="userSpaceOnUse"
       id="clipPath4">
      <path
         d="M 0,0 H 400 V 400 H 0 Z"
         transform="translate(-163.2397,-156.6982)"
         id="path4" />
    </clipPath>
    <clipPath
       clipPathUnits="userSpaceOnUse"
       id="clipPath6">
      <path
         d="M 0,0 H 400 V 400 H 0 Z"
         transform="translate(-163.23831,-150.1562)"
         id="path6" />
    </clipPath>
    <clipPath
       clipPathUnits="userSpaceOnUse"
       id="clipPath8">
      <path
         d="M 0,0 H 400 V 400 H 0 Z"
         transform="translate(-240.49801,-156.6982)"
         id="path8" />
    </clipPath>
    <clipPath
       clipPathUnits="userSpaceOnUse"
       id="clipPath10">
      <path
         d="M 0,0 H 400 V 400 H 0 Z"
         transform="translate(-240.49801,-150.1562)"
         id="path10" />
    </clipPath>
    <clipPath
       clipPathUnits="userSpaceOnUse"
       id="clipPath12">
      <path
         d="M 0,0 H 400 V 400 H 0 Z"
         transform="translate(-278.07621,-156.6982)"
         id="path12" />
    </clipPath>
    <clipPath
       clipPathUnits="userSpaceOnUse"
       id="clipPath14">
      <path
         d="M 0,0 H 400 V 400 H 0 Z"
         transform="translate(-278.0752,-150.1562)"
         id="path14" />
    </clipPath>
    <clipPath
       clipPathUnits="userSpaceOnUse"
       id="clipPath16">
      <path
         d="M 0,0 H 400 V 400 H 0 Z"
         transform="translate(-355.33501,-156.6982)"
         id="path16" />
    </clipPath>
    <clipPath
       clipPathUnits="userSpaceOnUse"
       id="clipPath18">
      <path
         d="M 0,0 H 400 V 400 H 0 Z"
         transform="translate(-355.33501,-150.1562)"
         id="path18" />
    </clipPath>
    <clipPath
       clipPathUnits="userSpaceOnUse"
       id="clipPath20">
      <path
         d="M 0,0 H 400 V 400 H 0 Z"
         transform="translate(-48.403301,-156.6982)"
         id="path20" />
    </clipPath>
    <clipPath
       clipPathUnits="userSpaceOnUse"
       id="clipPath22">
      <path
         d="M 0,0 H 400 V 400 H 0 Z"
         transform="translate(-48.401901,-150.1562)"
         id="path22" />
    </clipPath>
    <clipPath
       clipPathUnits="userSpaceOnUse"
       id="clipPath24">
      <path
         d="M 0,0 H 400 V 400 H 0 Z"
         transform="translate(-125.66211,-156.6982)"
         id="path24" />
    </clipPath>
    <clipPath
       clipPathUnits="userSpaceOnUse"
       id="clipPath26">
      <path
         d="M 0,0 H 400 V 400 H 0 Z"
         transform="translate(-125.6616,-150.1562)"
         id="path26" />
    </clipPath>
  </defs>
  <g
     id="layer-MC0">
    <path
       id="path1"
       d="m 0,0 h -224.299 c -48.441,0 -87.85,-39.41 -87.85,-87.851 v -224.298 c 0,-48.442 39.409,-87.851 87.85,-87.851 H 0 c 48.441,0 87.851,39.409 87.851,87.851 V -87.851 C 87.851,-39.41 48.441,0 0,0 m 0,-13.084 c 41.292,0 74.767,-33.474 74.767,-74.767 v -224.298 c 0,-41.293 -33.475,-74.767 -74.767,-74.767 h -224.299 c -41.292,0 -74.766,33.474 -74.766,74.767 v 224.298 c 0,41.293 33.474,74.767 74.766,74.767 H 0"
       style="fill:#000000;fill-opacity:1;fill-rule:nonzero;stroke:none"
       transform="matrix(1.3333333,0,0,-1.3333333,416.1992,0)"
       clip-path="url(#clipPath2)" />
    <path
       id="path3"
       d="M 0,0 77.258,77.258"
       style="fill:#ffffff;fill-opacity:1;fill-rule:nonzero;stroke:none"
       transform="matrix(1.3333333,0,0,-1.3333333,217.65293,324.4024)"
       clip-path="url(#clipPath4)" />
    <path
       id="path5"
       d="m 0,0 c -1.675,0 -3.348,0.639 -4.625,1.916 -2.556,2.556 -2.556,6.695 0,9.251 l 77.26,77.258 c 2.555,2.555 6.695,2.555 9.251,0 2.554,-2.553 2.554,-6.697 0,-9.251 L 4.625,1.916 C 3.348,0.639 1.676,0 0,0"
       style="fill:#000000;fill-opacity:1;fill-rule:nonzero;stroke:none"
       transform="matrix(1.3333333,0,0,-1.3333333,217.65107,333.12507)"
       clip-path="url(#clipPath6)" />
    <path
       id="path7"
       d="M 0,0 -77.258,77.258"
       style="fill:#ffffff;fill-opacity:1;fill-rule:nonzero;stroke:none"
       transform="matrix(1.3333333,0,0,-1.3333333,320.664,324.4024)"
       clip-path="url(#clipPath8)" />
    <path
       id="path9"
       d="m 0,0 c -1.676,0 -3.348,0.639 -4.625,1.916 l -77.26,77.258 c -2.555,2.554 -2.555,6.698 0,9.251 2.555,2.555 6.696,2.555 9.251,0 L 4.626,11.167 C 7.181,8.611 7.181,4.472 4.626,1.916 3.348,0.639 1.676,0 0,0"
       style="fill:#000000;fill-opacity:1;fill-rule:nonzero;stroke:none"
       transform="matrix(1.3333333,0,0,-1.3333333,320.664,333.12507)"
       clip-path="url(#clipPath10)" />
    <path
       id="path11"
       d="M 0,0 77.259,77.258"
       style="fill:#ffffff;fill-opacity:1;fill-rule:nonzero;stroke:none"
       transform="matrix(1.3333333,0,0,-1.3333333,370.76827,324.4024)"
       clip-path="url(#clipPath12)" />
    <path
       id="path13"
       d="m 0,0 c -1.676,0 -3.348,0.639 -4.626,1.916 -2.556,2.556 -2.556,6.695 0,9.251 l 77.26,77.258 c 2.555,2.555 6.695,2.555 9.251,0 2.555,-2.553 2.555,-6.697 0,-9.251 L 4.625,1.916 C 3.348,0.639 1.676,0 0,0"
       style="fill:#000000;fill-opacity:1;fill-rule:nonzero;stroke:none"
       transform="matrix(1.3333333,0,0,-1.3333333,370.76693,333.12507)"
       clip-path="url(#clipPath14)" />
    <path
       id="path15"
       d="M 0,0 -77.259,77.258"
       style="fill:#ffffff;fill-opacity:1;fill-rule:nonzero;stroke:none"
       transform="matrix(1.3333333,0,0,-1.3333333,473.78,324.4024)"
       clip-path="url(#clipPath16)" />
    <path
       id="path17"
       d="m 0,0 c -1.676,0 -3.348,0.639 -4.626,1.916 l -77.26,77.258 c -2.555,2.554 -2.555,6.698 0,9.251 2.556,2.555 6.696,2.555 9.251,0 L 4.625,11.167 C 7.181,8.611 7.181,4.472 4.625,1.916 3.348,0.639 1.676,0 0,0"
       style="fill:#000000;fill-opacity:1;fill-rule:nonzero;stroke:none"
       transform="matrix(1.3333333,0,0,-1.3333333,473.78,333.12507)"
       clip-path="url(#clipPath18)" />
    <path
       id="path19"
       d="M 0,0 77.259,77.258"
       style="fill:#ffffff;fill-opacity:1;fill-rule:nonzero;stroke:none"
       transform="matrix(1.3333333,0,0,-1.3333333,64.537733,324.4024)"
       clip-path="url(#clipPath20)" />
    <path
       id="path21"
       d="m 0,0 c -1.675,0 -3.348,0.639 -4.625,1.916 -2.556,2.556 -2.556,6.695 0,9.251 l 77.259,77.258 c 2.556,2.555 6.696,2.555 9.251,0 2.556,-2.553 2.556,-6.697 0,-9.251 L 4.625,1.916 C 3.348,0.639 1.676,0 0,0"
       style="fill:#000000;fill-opacity:1;fill-rule:nonzero;stroke:none"
       transform="matrix(1.3333333,0,0,-1.3333333,64.535867,333.12507)"
       clip-path="url(#clipPath22)" />
    <path
       id="path23"
       d="M 0,0 -77.259,77.258"
       style="fill:#ffffff;fill-opacity:1;fill-rule:nonzero;stroke:none"
       transform="matrix(1.3333333,0,0,-1.3333333,167.54947,324.4024)"
       clip-path="url(#clipPath24)" />
    <path
       id="path25"
       d="m 0,0 c -1.675,0 -3.348,0.639 -4.625,1.916 l -77.26,77.258 c -2.555,2.554 -2.555,6.698 0,9.251 2.555,2.555 6.696,2.555 9.251,0 L 4.625,11.167 C 7.181,8.611 7.181,4.472 4.625,1.916 3.348,0.639 1.676,0 0,0"
       style="fill:#000000;fill-opacity:1;fill-rule:nonzero;stroke:none"
       transform="matrix(1.3333333,0,0,-1.3333333,167.5488,333.12507)"
       clip-path="url(#clipPath26)" />
  </g>
</svg>
