<?xml version="1.0" encoding="UTF-8" standalone="no"?>
<!-- Created with Inkscape (http://www.inkscape.org/) -->

<svg
   version="1.1"
   id="svg1"
   width="533.33331"
   height="533.33331"
   viewBox="0 0 533.33331 533.33331"
   xmlns="http://www.w3.org/2000/svg"
   xmlns:svg="http://www.w3.org/2000/svg">
  <defs
     id="defs1">
    <clipPath
       clipPathUnits="userSpaceOnUse"
       id="clipPath2">
      <path
         d="M 0,0 H 400 V 400 H 0 Z"
         transform="translate(-312.14941,-400.00001)"
         id="path2" />
    </clipPath>
    <clipPath
       clipPathUnits="userSpaceOnUse"
       id="clipPath4">
      <path
         d="M 0,0 H 400 V 400 H 0 Z"
         transform="translate(-135.0684,-149.7344)"
         id="path4" />
    </clipPath>
    <clipPath
       clipPathUnits="userSpaceOnUse"
       id="clipPath6">
      <path
         d="M 0,0 H 400 V 400 H 0 Z"
         transform="translate(-254.2861,-149.7344)"
         id="path6" />
    </clipPath>
    <clipPath
       clipPathUnits="userSpaceOnUse"
       id="clipPath8">
      <path
         d="M 0,0 H 400 V 400 H 0 Z"
         transform="translate(-288.85351,-193.5898)"
         id="path8" />
    </clipPath>
    <clipPath
       clipPathUnits="userSpaceOnUse"
       id="clipPath10">
      <path
         d="M 0,0 H 400 V 400 H 0 Z"
         transform="translate(-208.48051,-87.983405)"
         id="path10" />
    </clipPath>
  </defs>
  <g
     id="layer-MC0">
    <path
       id="path1"
       d="m 0,0 h -224.299 c -48.441,0 -87.85,-39.41 -87.85,-87.851 v -224.298 c 0,-48.442 39.409,-87.851 87.85,-87.851 H 0 c 48.441,0 87.851,39.409 87.851,87.851 V -87.851 C 87.851,-39.41 48.441,0 0,0 m 0,-13.084 c 41.293,0 74.767,-33.474 74.767,-74.767 v -224.298 c 0,-41.292 -33.474,-74.767 -74.767,-74.767 h -224.299 c -41.292,0 -74.766,33.475 -74.766,74.767 v 224.298 c 0,41.293 33.474,74.767 74.766,74.767 H 0"
       style="fill:#000000;fill-opacity:1;fill-rule:nonzero;stroke:none"
       transform="matrix(1.3333333,0,0,-1.3333333,416.1992,0)"
       clip-path="url(#clipPath2)" />
    <path
       id="path3"
       d="m 0,0 c -1.449,0 -2.906,0.479 -4.118,1.46 -2.805,2.278 -3.235,6.396 -0.958,9.204 L 97.205,136.739 c 12.172,15.008 31.079,19.266 47.038,10.598 3.176,-1.725 4.352,-5.697 2.628,-8.871 -1.725,-3.176 -5.7,-4.352 -8.871,-2.629 -10.408,5.655 -22.434,2.766 -30.635,-7.341 L 5.083,2.421 C 3.792,0.829 1.904,0 0,0"
       style="fill:#000000;fill-opacity:1;fill-rule:nonzero;stroke:none"
       transform="matrix(1.3333333,0,0,-1.3333333,180.0912,333.68747)"
       clip-path="url(#clipPath4)" />
    <path
       id="path5"
       d="m 0,0 c -1.904,0 -3.792,0.825 -5.084,2.421 l -101.568,125.195 c -8.543,10.529 -20.952,13.192 -31.617,6.779 l -1.497,-0.9 c -3.095,-1.863 -7.117,-0.863 -8.979,2.233 -1.861,3.096 -0.863,7.115 2.233,8.979 l 1.498,0.901 c 16.323,9.813 35.825,5.9 48.522,-9.749 L 5.076,10.664 C 7.353,7.856 6.923,3.738 4.117,1.46 2.905,0.479 1.447,0 0,0"
       style="fill:#000000;fill-opacity:1;fill-rule:nonzero;stroke:none"
       transform="matrix(1.3333333,0,0,-1.3333333,339.04813,333.68747)"
       clip-path="url(#clipPath6)" />
    <path
       id="path7"
       d="M 0,0 -80.37,-99.065"
       style="fill:#ffffff;fill-opacity:1;fill-rule:nonzero;stroke:none"
       transform="matrix(1.3333333,0,0,-1.3333333,385.138,275.2136)"
       clip-path="url(#clipPath8)" />
    <path
       id="path9"
       d="m 0,0 c -1.449,0 -2.906,0.478 -4.118,1.46 -2.806,2.278 -3.235,6.395 -0.958,9.203 l 80.368,99.066 c 2.278,2.807 6.399,3.229 9.203,0.959 2.808,-2.277 3.234,-6.395 0.96,-9.203 L 5.083,2.42 C 3.791,0.828 1.903,0 0,0"
       style="fill:#000000;fill-opacity:1;fill-rule:nonzero;stroke:none"
       transform="matrix(1.3333333,0,0,-1.3333333,277.974,416.02213)"
       clip-path="url(#clipPath10)" />
  </g>
</svg>
